# xmcd
#
# Track frame offsets:
#	150
#	16510
#	31353
#	56127
#	71123
#	87312
#	105894
#	123072
#	140838
#	162544
#	184455
#	204636
#	224830
#	239951
#	256627
#	272351
#
# Disc length: 3865 seconds
#
# Revision: 8
# Processed by: cddbd v1.4PL0 Copyright (c) Steve Scherf et al.
# Submitted via: dBpowerAMP V4.0
#
DISCID=ef0f1710
DTITLE=Modern Talking - America
DYEAR=2003
DGENRE=Dance
TTITLE0=Win The Race
TTITLE1=Last Exit To Brooklin
TTITLE2=Maria
TTITLE3=SMS To My Heart
TTITLE4=Cinderella Girl
TTITLE5=Why Does It Feel So Good
TTITLE6=Rain In My Heart
TTITLE7=Witchqueen Of Eldorado
TTITLE8=Run To You
TTITLE9=America
TTITLE10=For A Life Time
TTITLE11=From Coast To Coast
TTITLE12=There's Something In The Air
TTITLE13=I Need You Now
TTITLE14=New York City Girl
TTITLE15=Send Me A Letter From Heaven
EXTD=Submited by GMV Studio\n(www.GMV.times.lv]\non 2003.12.18
EXTT0=
EXTT1=
EXTT2=
EXTT3=
EXTT4=
EXTT5=
EXTT6=
EXTT7=
EXTT8=
EXTT9=
EXTT10=
EXTT11=
EXTT12=
EXTT13=
EXTT14=
EXTT15=
PLAYORDER=
